<?xml version="1.0" encoding="UTF-8"?>
<!DOCTYPE svg PUBLIC "-//W3C//DTD SVG 1.1//EN" "http://www.w3.org/Graphics/SVG/1.1/DTD/svg11.dtd">
<svg xmlns="http://www.w3.org/2000/svg" version="1.1" width="1493px" height="403px" style="shape-rendering:geometricPrecision; text-rendering:geometricPrecision; image-rendering:optimizeQuality; fill-rule:evenodd; clip-rule:evenodd" xmlns:xlink="http://www.w3.org/1999/xlink">
<g><path style="opacity:0.856" fill="#000000" d="M 302.5,35.5 C 305.47,40.792 308.803,45.792 312.5,50.5C 318.254,59.6769 324.254,68.6769 330.5,77.5C 331.326,78.451 331.492,79.451 331,80.5C 329.385,79.6138 327.885,78.6138 326.5,77.5C 325.205,76.5116 323.872,75.5116 322.5,74.5C 319.81,71.8154 316.81,69.4821 313.5,67.5C 310.81,64.8154 307.81,62.4821 304.5,60.5C 296.876,54.5545 289.21,48.5545 281.5,42.5C 280.928,40.9222 280.594,39.4222 280.5,38C 282.585,35.5806 283.585,32.7472 283.5,29.5C 284.931,28.2196 285.598,26.5529 285.5,24.5C 286.102,21.8584 287.436,19.5251 289.5,17.5C 293.42,22.4173 296.586,27.084 299,31.5C 299.949,33.0931 301.115,34.4264 302.5,35.5 Z"/></g>
<g><path style="opacity:0.004" fill="#000000" d="M 292.5,19.5 C 293.833,20.1667 293.833,20.1667 292.5,19.5 Z"/></g>
<g><path style="opacity:0.004" fill="#000000" d="M 337.5,20.5 C 338.833,21.1667 338.833,21.1667 337.5,20.5 Z"/></g>
<g><path style="opacity:0.794" fill="#000000" d="M 337.5,21.5 C 337.772,23.6106 338.105,25.7772 338.5,28C 337.833,30.3333 337.167,32.6667 336.5,35C 337.121,44.2285 337.121,53.7285 336.5,63.5C 336.5,64.1667 336.5,64.8333 336.5,65.5C 335.964,67.4302 335.964,69.5969 336.5,72C 335.667,72.8333 334.833,73.6667 334,74.5C 329.572,60.6142 325.072,46.7808 320.5,33C 321.416,32.7216 322.082,32.2216 322.5,31.5C 324.95,30.2235 327.283,28.7235 329.5,27C 330.833,26.3333 330.833,25.6667 329.5,25C 330.833,24.6667 332.167,24.3333 333.5,24C 334.833,23.3333 334.833,22.6667 333.5,22C 334.793,21.51 336.127,21.3433 337.5,21.5 Z"/></g>
<g><path style="opacity:0.004" fill="#000000" d="M 285.5,24.5 C 284.833,23.1667 284.833,23.1667 285.5,24.5 Z"/></g>
<g><path style="opacity:0.004" fill="#000000" d="M 283.5,29.5 C 282.833,28.1667 282.833,28.1667 283.5,29.5 Z"/></g>
<g><path style="opacity:0.004" fill="#000000" d="M 322.5,31.5 C 321.833,30.1667 321.833,30.1667 322.5,31.5 Z"/></g>
<g><path style="opacity:0.008" fill="#000000" d="M 281.5,31.5 C 282.833,32.1667 282.833,32.1667 281.5,31.5 Z"/></g>
<g><path style="opacity:0.004" fill="#000000" d="M 302.5,34.5 C 303.833,35.1667 303.833,35.1667 302.5,34.5 Z"/></g>
<g><path style="opacity:0.966" fill="#000000" d="M 1424.5,55.5 C 1426.43,56.81 1428.43,58.1433 1430.5,59.5C 1431.5,52.8665 1431.83,46.1998 1431.5,39.5C 1448.48,38.5894 1465.48,38.256 1482.5,38.5C 1482.61,72.5026 1482.95,106.503 1483.5,140.5C 1467.48,140.212 1451.48,140.545 1435.5,141.5C 1431.79,141.078 1428.12,140.411 1424.5,139.5C 1425.54,128.299 1422.21,118.633 1414.5,110.5C 1406.67,99.5222 1396.34,91.6889 1383.5,87C 1360.46,77.723 1337.79,78.3897 1315.5,89C 1313.31,90.4117 1311.65,92.245 1310.5,94.5C 1307.82,96.9838 1305.66,99.3171 1304,101.5C 1299.47,112.601 1299.8,123.601 1305,134.5C 1305.95,136.093 1307.12,137.426 1308.5,138.5C 1309.11,140.434 1310.11,142.101 1311.5,143.5C 1312.83,145.5 1314.5,147.167 1316.5,148.5C 1317.63,150.129 1318.96,151.629 1320.5,153C 1326.34,156.754 1332.01,160.754 1337.5,165C 1361.13,174.484 1384.46,184.484 1407.5,195C 1416.93,200.768 1426.6,206.101 1436.5,211C 1442.73,216.073 1449.06,220.907 1455.5,225.5C 1463.61,233.266 1470.94,241.599 1477.5,250.5C 1496.05,279.366 1496.05,307.699 1477.5,335.5C 1469.02,344.979 1459.36,352.979 1448.5,359.5C 1410.33,376.944 1370.66,381.111 1329.5,372C 1313.08,368.083 1297.25,362.583 1282,355.5C 1281.19,361.749 1281.36,367.916 1282.5,374C 1264.84,374.5 1247.17,374.667 1229.5,374.5C 1229.5,340.5 1229.5,306.5 1229.5,272.5C 1246.48,271.589 1263.48,271.256 1280.5,271.5C 1280.33,279.507 1280.5,287.507 1281,295.5C 1282.7,297.373 1284.54,299.04 1286.5,300.5C 1286.5,301.167 1286.83,301.5 1287.5,301.5C 1288.58,303.543 1290.25,304.876 1292.5,305.5C 1305.16,315.912 1319.32,322.912 1335,326.5C 1346.83,332.112 1359.33,334.445 1372.5,333.5C 1394.19,334.678 1412.36,328.011 1427,313.5C 1429.58,310.274 1431.08,306.607 1431.5,302.5C 1432.65,297.35 1432.82,292.016 1432,286.5C 1431.72,283.543 1430.89,280.877 1429.5,278.5C 1422.57,261.9 1410.9,249.9 1394.5,242.5C 1391.92,239.865 1388.92,237.699 1385.5,236C 1347.64,222.508 1311.98,204.842 1278.5,183C 1272.66,178.33 1267.33,173.163 1262.5,167.5C 1261.3,165.091 1259.63,163.091 1257.5,161.5C 1257.25,159.326 1256.25,157.659 1254.5,156.5C 1247.79,144.403 1243.79,131.07 1242.5,116.5C 1243.45,102.327 1247.78,89.3268 1255.5,77.5C 1260.14,72.5261 1264.81,67.5261 1269.5,62.5C 1287.61,48.4881 1308.61,40.3214 1332.5,38C 1365.41,35.0202 1396.08,40.8535 1424.5,55.5 Z"/></g>
<g><path style="opacity:0.004" fill="#000000" d="M 1482.5,37.5 C 1483.83,38.1667 1483.83,38.1667 1482.5,37.5 Z"/></g>
<g><path style="opacity:0.994" fill="#b00a3d" d="M 101.5,39.5 C 151.5,39.5 201.5,39.5 251.5,39.5C 251.5,56.1667 251.5,72.8333 251.5,89.5C 244.468,89.1697 237.468,89.503 230.5,90.5C 254.787,168.386 278.787,246.72 302.5,325.5C 318.833,325.5 335.167,325.5 351.5,325.5C 351.5,342.167 351.5,358.833 351.5,375.5C 301.5,375.5 251.5,375.5 201.5,375.5C 201.5,358.833 201.5,342.167 201.5,325.5C 217.514,325.833 233.514,325.499 249.5,324.5C 242.553,303.661 236.22,282.661 230.5,261.5C 194.167,261.5 157.833,261.5 121.5,261.5C 115.576,282.274 109.242,302.941 102.5,323.5C 118.82,324.499 135.153,324.833 151.5,324.5C 151.5,341.167 151.5,357.833 151.5,374.5C 101.5,374.5 51.5,374.5 1.5,374.5C 1.5,357.833 1.5,341.167 1.5,324.5C 17.5,324.5 33.5,324.5 49.5,324.5C 73.12,245.834 97.12,167.668 121.5,90C 114.842,89.5004 108.175,89.3337 101.5,89.5C 101.5,72.8333 101.5,56.1667 101.5,39.5 Z M 174.5,89.5 C 175.5,89.5 176.5,89.5 177.5,89.5C 189.333,130.308 201.666,170.641 214.5,210.5C 188.842,211.5 163.175,211.833 137.5,211.5C 149.722,171.14 162.055,130.473 174.5,89.5 Z"/></g>
<g><path style="opacity:0.968" fill="#000000" d="M 643.5,373.5 C 626.577,374.485 609.577,374.818 592.5,374.5C 592.667,359.163 592.5,343.83 592,328.5C 559.856,359.064 521.523,374.731 477,375.5C 419.61,373.972 373.276,350.638 338,305.5C 299.107,245.847 296.44,184.514 330,121.5C 358.383,76.0377 399.216,49.2044 452.5,41C 512.012,34.6927 562.178,53.1927 603,96.5C 606.308,101.308 609.808,105.975 613.5,110.5C 593.842,111.666 574.175,111.833 554.5,111C 531.466,92.8095 505.133,83.3095 475.5,82.5C 420.123,85.4187 381.29,112.085 359,162.5C 341.088,218.416 353.922,265.916 397.5,305C 449.503,341.607 501.503,341.607 553.5,305C 570.061,290.45 582.728,273.116 591.5,253C 570.169,252.5 548.836,252.333 527.5,252.5C 527.5,235.833 527.5,219.167 527.5,202.5C 568.5,202.5 609.5,202.5 650.5,202.5C 650.5,219.167 650.5,235.833 650.5,252.5C 647.833,252.5 645.167,252.5 642.5,252.5C 643.091,292.831 643.424,333.164 643.5,373.5 Z"/></g>
<g><path style="opacity:0.992" fill="#b00a3d" d="M 737.5,90.5 C 733.5,90.5 729.5,90.5 725.5,90.5C 725.5,112.5 725.5,134.5 725.5,156.5C 725.557,157.609 725.89,158.609 726.5,159.5C 725.823,170.569 725.157,181.735 724.5,193C 724.867,199.963 725.2,207.129 725.5,214.5C 725.063,217.282 725.063,219.949 725.5,222.5C 724.167,224.5 724.167,226.5 725.5,228.5C 725.5,228.833 725.5,229.167 725.5,229.5C 724.201,242.729 724.201,256.229 725.5,270C 723.724,273.55 723.391,277.384 724.5,281.5C 723.167,281.833 723.167,282.167 724.5,282.5C 724.458,292.188 724.458,301.521 724.5,310.5C 723.723,313.777 723.723,317.111 724.5,320.5C 724.5,320.833 724.5,321.167 724.5,321.5C 723.566,322.568 723.232,323.901 723.5,325.5C 732.167,325.5 740.833,325.5 749.5,325.5C 749.5,341.833 749.5,358.167 749.5,374.5C 716.167,374.5 682.833,374.5 649.5,374.5C 649.5,358.167 649.5,341.833 649.5,325.5C 656.841,325.666 664.174,325.5 671.5,325C 671.847,321.493 671.847,318.326 671.5,315.5C 672.756,313.059 672.756,310.726 671.5,308.5C 672.756,306.059 672.756,303.726 671.5,301.5C 671.605,288.461 672.272,275.294 673.5,262C 672.65,255.91 672.65,250.243 673.5,245C 671.487,244.125 671.487,242.791 673.5,241C 672.581,234.912 672.581,229.412 673.5,224.5C 672.833,224.167 672.167,223.833 671.5,223.5C 672.025,222.808 672.692,222.308 673.5,222C 673.749,192.392 673.749,163.225 673.5,134.5C 673.5,134.167 673.5,133.833 673.5,133.5C 673.937,131.616 673.937,129.616 673.5,127.5C 674.277,124.223 674.277,120.889 673.5,117.5C 673.5,117.167 673.5,116.833 673.5,116.5C 674.35,108.17 674.683,99.837 674.5,91.5C 666.862,90.5025 659.196,90.1692 651.5,90.5C 651.5,73.8333 651.5,57.1667 651.5,40.5C 685.167,40.5 718.833,40.5 752.5,40.5C 752.5,57.1667 752.5,73.8333 752.5,90.5C 747.5,90.5 742.5,90.5 737.5,90.5 Z"/></g>
<g><path style="opacity:0.979" fill="#000000" d="M 940.5,97.5 C 939.167,97.8333 939.167,98.1667 940.5,98.5C 939.314,99.9613 939.314,101.295 940.5,102.5C 939.492,106.007 939.492,109.341 940.5,112.5C 939.3,115.969 939.3,119.302 940.5,122.5C 939.738,124.686 939.738,127.02 940.5,129.5C 938.953,131.762 939.286,133.762 941.5,135.5C 941.154,136.696 940.654,136.696 940,135.5C 939.827,154.74 939.327,173.907 938.5,193C 938.867,199.963 939.2,207.129 939.5,214.5C 939.063,217.282 939.063,219.949 939.5,222.5C 938.167,224.5 938.167,226.5 939.5,228.5C 939.5,228.833 939.5,229.167 939.5,229.5C 938.201,242.729 938.201,256.229 939.5,270C 937.724,273.55 937.391,277.384 938.5,281.5C 937.167,281.833 937.167,282.167 938.5,282.5C 938.458,292.188 938.458,301.521 938.5,310.5C 937.723,313.777 937.723,317.111 938.5,320.5C 938.5,320.833 938.5,321.167 938.5,321.5C 937.566,322.568 937.232,323.901 937.5,325.5C 946.167,325.5 954.833,325.5 963.5,325.5C 963.5,341.833 963.5,358.167 963.5,374.5C 930.167,374.5 896.833,374.5 863.5,374.5C 863.5,358.167 863.5,341.833 863.5,325.5C 867.884,325.826 872.217,325.492 876.5,324.5C 875.479,322.812 874.145,321.479 872.5,320.5C 870.263,316.59 867.263,313.257 863.5,310.5C 861.906,307.236 859.573,304.569 856.5,302.5C 854.212,298.544 851.212,295.211 847.5,292.5C 843.177,286.845 838.51,281.512 833.5,276.5C 833.5,275.833 833.167,275.5 832.5,275.5C 830.176,272.177 827.509,269.177 824.5,266.5C 824.5,265.833 824.167,265.5 823.5,265.5C 822.598,263.659 821.264,262.326 819.5,261.5C 818.243,258.573 816.243,256.239 813.5,254.5C 807.813,247.483 801.813,240.817 795.5,234.5C 793.194,231.527 790.527,228.86 787.5,226.5C 783.871,221.491 779.537,216.491 774.5,211.5C 768.813,204.483 762.813,197.817 756.5,191.5C 754.234,187.564 751.234,184.231 747.5,181.5C 742.532,175.197 737.198,169.197 731.5,163.5C 730.219,160.553 728.219,158.219 725.5,156.5C 725.5,134.5 725.5,112.5 725.5,90.5C 729.5,90.5 733.5,90.5 737.5,90.5C 738.072,92.2554 738.906,93.9221 740,95.5C 751.123,107.115 761.956,118.781 772.5,130.5C 772.5,131.167 772.833,131.5 773.5,131.5C 777.127,136.794 781.46,141.461 786.5,145.5C 802.129,164.398 818.463,182.731 835.5,200.5C 836.8,203.432 838.8,205.766 841.5,207.5C 844.609,211.397 847.943,215.064 851.5,218.5C 852.167,219.833 853.167,220.833 854.5,221.5C 864.878,233.705 875.378,245.705 886,257.5C 886.236,255.236 886.736,253.069 887.5,251C 887.5,249 887.5,247 887.5,245C 885.487,244.125 885.487,242.791 887.5,241C 886.581,234.912 886.581,229.412 887.5,224.5C 886.833,224.167 886.167,223.833 885.5,223.5C 886.025,222.808 886.692,222.308 887.5,222C 887.749,192.392 887.749,163.225 887.5,134.5C 887.5,134.167 887.5,133.833 887.5,133.5C 887.937,131.616 887.937,129.616 887.5,127.5C 888.277,124.223 888.277,120.889 887.5,117.5C 887.5,117.167 887.5,116.833 887.5,116.5C 888.35,108.17 888.683,99.837 888.5,91.5C 880.862,90.5025 873.196,90.1692 865.5,90.5C 865.5,73.8333 865.5,57.1667 865.5,40.5C 899.167,40.5 932.833,40.5 966.5,40.5C 966.5,57.1667 966.5,73.8333 966.5,90.5C 957.833,90.5 949.167,90.5 940.5,90.5C 939.918,92.998 939.918,95.3313 940.5,97.5 Z"/></g>
<g><path style="opacity:0.995" fill="#000000" d="M 1163.5,91.5 C 1124,90.5014 1084.34,90.1681 1044.5,90.5C 1044.5,120.167 1044.5,149.833 1044.5,179.5C 1101.83,179.5 1159.17,179.5 1216.5,179.5C 1216.5,196.167 1216.5,212.833 1216.5,229.5C 1158.83,229.5 1101.17,229.5 1043.5,229.5C 1043.5,261.167 1043.5,292.833 1043.5,324.5C 1087.03,324.429 1130.2,324.429 1173,324.5C 1173.5,322.19 1173.66,319.857 1173.5,317.5C 1190.5,317.5 1207.5,317.5 1224.5,317.5C 1224.19,336.501 1223.86,355.501 1223.5,374.5C 1138.83,374.5 1054.17,374.5 969.5,374.5C 969.5,357.833 969.5,341.167 969.5,324.5C 977.5,324.5 985.5,324.5 993.5,324.5C 993.5,246.5 993.5,168.5 993.5,90.5C 987.5,90.5 981.5,90.5 975.5,90.5C 975.5,73.8333 975.5,57.1667 975.5,40.5C 1058.5,40.5 1141.5,40.5 1224.5,40.5C 1224.83,59.8333 1225.17,79.1667 1225.5,98.5C 1208.5,98.5 1191.5,98.5 1174.5,98.5C 1174.66,96.1432 1174.5,93.8098 1174,91.5C 1170.71,91.6584 1167.21,91.6584 1163.5,91.5 Z"/></g>
<g><path style="opacity:0.004" fill="#000000" d="M 312.5,49.5 C 313.833,50.1667 313.833,50.1667 312.5,49.5 Z"/></g>
<g><path style="opacity:0.004" fill="#000000" d="M 1424.5,54.5 C 1423.83,53.1667 1423.83,53.1667 1424.5,54.5 Z"/></g>
<g><path style="opacity:0.004" fill="#000000" d="M 1277.5,54.5 C 1278.83,55.1667 1278.83,55.1667 1277.5,54.5 Z"/></g>
<g><path style="opacity:0.004" fill="#000000" d="M 1424.5,54.5 C 1425.83,55.1667 1425.83,55.1667 1424.5,54.5 Z"/></g>
<g><path style="opacity:0.004" fill="#000000" d="M 1277.5,55.5 C 1276.83,56.1667 1276.83,56.1667 1277.5,55.5 Z"/></g>
<g><path style="opacity:0.004" fill="#000000" d="M 1271.5,58.5 C 1272.83,59.1667 1272.83,59.1667 1271.5,58.5 Z"/></g>
<g><path style="opacity:0.004" fill="#000000" d="M 1271.5,59.5 C 1270.83,60.1667 1270.83,60.1667 1271.5,59.5 Z"/></g>
<g><path style="opacity:0.004" fill="#000000" d="M 304.5,60.5 C 303.833,61.1667 303.833,61.1667 304.5,60.5 Z"/></g>
<g><path style="opacity:0.004" fill="#000000" d="M 1270.5,60.5 C 1269.83,61.1667 1269.83,61.1667 1270.5,60.5 Z"/></g>
<g><path style="opacity:0.004" fill="#000000" d="M 1269.5,61.5 C 1269.5,61.8333 1269.5,62.1667 1269.5,62.5C 1268.83,62.0187 1268.83,61.6853 1269.5,61.5 Z"/></g>
<g><path style="opacity:0.004" fill="#000000" d="M 288.5,62.5 C 289.833,63.1667 289.833,63.1667 288.5,62.5 Z"/></g>
<g><path style="opacity:0.004" fill="#000000" d="M 336.5,62.5 C 337.833,63.1667 337.833,63.1667 336.5,62.5 Z"/></g>
<g><path style="opacity:0.819" fill="#000000" d="M 290.5,65.5 C 293.291,67.7349 296.291,69.7349 299.5,71.5C 302.989,74.08 306.656,76.4133 310.5,78.5C 311.659,80.2503 313.326,81.2503 315.5,81.5C 318.475,84.3229 321.808,86.6563 325.5,88.5C 325.833,89.8333 326.167,89.8333 326.5,88.5C 327.854,90.6959 329.854,92.1959 332.5,93C 331.975,93.6924 331.308,94.1924 330.5,94.5C 328.591,93.6518 326.591,93.3184 324.5,93.5C 324.167,92.1667 323.833,92.1667 323.5,93.5C 323.167,93.5 322.833,93.5 322.5,93.5C 321.828,92.7326 320.995,92.0659 320,91.5C 318.044,91.7845 315.877,91.7845 313.5,91.5C 310.662,90.365 307.662,89.365 304.5,88.5C 303.893,88.6236 303.56,88.9569 303.5,89.5C 302.279,88.9717 301.113,88.305 300,87.5C 299.667,88.1667 299.333,88.8333 299,89.5C 296.62,87.0085 293.953,85.6751 291,85.5C 290.667,85.8333 290.333,86.1667 290,86.5C 287.876,85.7728 285.709,85.1062 283.5,84.5C 283.167,85.1667 282.833,85.8333 282.5,86.5C 281.534,84.604 281.201,82.604 281.5,80.5C 282.635,77.6619 283.635,74.6619 284.5,71.5C 284.154,70.3044 283.654,70.3044 283,71.5C 282.333,70.5 282.333,69.5 283,68.5C 283.667,69.8333 284.333,69.8333 285,68.5C 284.914,63.2981 286.747,62.2981 290.5,65.5 Z"/></g>
<g><path style="opacity:0.004" fill="#000000" d="M 290.5,64.5 C 291.833,65.1667 291.833,65.1667 290.5,64.5 Z"/></g>
<g><path style="opacity:0.004" fill="#000000" d="M 1264.5,64.5 C 1265.83,65.1667 1265.83,65.1667 1264.5,64.5 Z"/></g>
<g><path style="opacity:0.004" fill="#000000" d="M 294.5,66.5 C 293.833,65.1667 293.833,65.1667 294.5,66.5 Z"/></g>
<g><path style="opacity:0.004" fill="#000000" d="M 336.5,65.5 C 337.833,66.1667 337.833,66.1667 336.5,65.5 Z"/></g>
<g><path style="opacity:0.004" fill="#000000" d="M 1264.5,65.5 C 1263.83,66.1667 1263.83,66.1667 1264.5,65.5 Z"/></g>
<g><path style="opacity:0.004" fill="#000000" d="M 294.5,66.5 C 295.833,67.1667 295.833,67.1667 294.5,66.5 Z"/></g>
<g><path style="opacity:0.004" fill="#000000" d="M 313.5,67.5 C 312.833,68.1667 312.833,68.1667 313.5,67.5 Z"/></g>
<g><path style="opacity:0.004" fill="#000000" d="M 326.5,69.5 C 327.833,70.1667 327.833,70.1667 326.5,69.5 Z"/></g>
<g><path style="opacity:0.012" fill="#000000" d="M 299.5,70.5 C 300.833,71.1667 300.833,71.1667 299.5,70.5 Z"/></g>
<g><path style="opacity:0.004" fill="#000000" d="M 281.5,72.5 C 282.833,73.1667 282.833,73.1667 281.5,72.5 Z"/></g>
<g><path style="opacity:0.004" fill="#000000" d="M 281.5,74.5 C 282.833,75.1667 282.833,75.1667 281.5,74.5 Z"/></g>
<g><path style="opacity:0.004" fill="#000000" d="M 322.5,74.5 C 321.833,75.1667 321.833,75.1667 322.5,74.5 Z"/></g>
<g><path style="opacity:0.004" fill="#000000" d="M 1255.5,77.5 C 1254.47,77.1034 1254.31,76.4368 1255,75.5C 1255.46,76.0944 1255.63,76.7611 1255.5,77.5 Z"/></g>
<g><path style="opacity:0.006" fill="#000000" d="M 310.5,78.5 C 309.632,76.1081 310.299,75.9414 312.5,78C 311.906,78.4643 311.239,78.631 310.5,78.5 Z"/></g>
<g><path style="opacity:0.004" fill="#000000" d="M 326.5,77.5 C 325.833,78.1667 325.833,78.1667 326.5,77.5 Z"/></g>
<g><path style="opacity:0.008" fill="#000000" d="M 281.5,80.5 C 280.833,79.1667 280.833,79.1667 281.5,80.5 Z"/></g>
<g><path style="opacity:0.004" fill="#000000" d="M 315.5,80.5 C 314.833,79.1667 314.833,79.1667 315.5,80.5 Z"/></g>
<g><path style="opacity:0.004" fill="#000000" d="M 315.5,80.5 C 316.833,81.1667 316.833,81.1667 315.5,80.5 Z"/></g>
<g><path style="opacity:0.004" fill="#000000" d="M 320.5,83.5 C 319.833,82.1667 319.833,82.1667 320.5,83.5 Z"/></g>
<g><path style="opacity:0.004" fill="#000000" d="M 320.5,83.5 C 321.833,84.1667 321.833,84.1667 320.5,83.5 Z"/></g>
<g><path style="opacity:0.008" fill="#000000" d="M 324.5,86.5 C 323.833,85.1667 323.833,85.1667 324.5,86.5 Z"/></g>
<g><path style="opacity:0.004" fill="#000000" d="M 1325.5,85.5 C 1326.83,86.1667 1326.83,86.1667 1325.5,85.5 Z"/></g>
<g><path style="opacity:0.004" fill="#000000" d="M 1375.5,85.5 C 1376.83,86.1667 1376.83,86.1667 1375.5,85.5 Z"/></g>
<g><path style="opacity:0.004" fill="#000000" d="M 284.5,86.5 C 285.833,87.1667 285.833,87.1667 284.5,86.5 Z"/></g>
<g><path style="opacity:0.004" fill="#000000" d="M 287.5,86.5 C 288.833,87.1667 288.833,87.1667 287.5,86.5 Z"/></g>
<g><path style="opacity:0.008" fill="#000000" d="M 324.5,86.5 C 325.833,86.5 326.5,87.1667 326.5,88.5C 326.167,88.5 325.833,88.5 325.5,88.5C 325.167,87.8333 324.833,87.1667 324.5,86.5 Z"/></g>
<g><path style="opacity:0.004" fill="#000000" d="M 296.5,88.5 C 297.833,89.1667 297.833,89.1667 296.5,88.5 Z"/></g>
<g><path style="opacity:0.004" fill="#000000" d="M 303.5,89.5 C 304.833,90.1667 304.833,90.1667 303.5,89.5 Z"/></g>
<g><path style="opacity:0.004" fill="#000000" d="M 329.5,89.5 C 330.833,90.1667 330.833,90.1667 329.5,89.5 Z"/></g>
<g><path style="opacity:0.008" fill="#000000" d="M 1316.5,89.5 C 1317.83,90.1667 1317.83,90.1667 1316.5,89.5 Z"/></g>
<g><path style="opacity:0.004" fill="#000000" d="M 1385.5,89.5 C 1386.83,90.1667 1386.83,90.1667 1385.5,89.5 Z"/></g>
<g><path style="opacity:0.004" fill="#000000" d="M 307.5,90.5 C 308.833,91.1667 308.833,91.1667 307.5,90.5 Z"/></g>
<g><path style="opacity:0.004" fill="#000000" d="M 1316.5,90.5 C 1315.83,91.1667 1315.83,91.1667 1316.5,90.5 Z"/></g>
<g><path style="opacity:0.004" fill="#000000" d="M 309.5,91.5 C 310.833,92.1667 310.833,92.1667 309.5,91.5 Z"/></g>
<g><path style="opacity:0.004" fill="#000000" d="M 313.5,91.5 C 312.833,92.1667 312.833,92.1667 313.5,91.5 Z"/></g>
<g><path style="opacity:0.004" fill="#000000" d="M 1163.5,91.5 C 1162.83,92.1667 1162.83,92.1667 1163.5,91.5 Z"/></g>
<g><path style="opacity:0.004" fill="#000000" d="M 322.5,93.5 C 321.833,94.1667 321.833,94.1667 322.5,93.5 Z"/></g>
<g><path style="opacity:0.004" fill="#000000" d="M 323.5,93.5 C 323.833,93.5 324.167,93.5 324.5,93.5C 324.315,94.1701 323.981,94.1701 323.5,93.5 Z"/></g>
<g><path style="opacity:0.004" fill="#000000" d="M 741.5,93.5 C 742.833,94.1667 742.833,94.1667 741.5,93.5 Z"/></g>
<g><path style="opacity:0.004" fill="#000000" d="M 325.5,94.5 C 326.833,95.1667 326.833,95.1667 325.5,94.5 Z"/></g>
<g><path style="opacity:0.004" fill="#000000" d="M 327.5,94.5 C 328.833,95.1667 328.833,95.1667 327.5,94.5 Z"/></g>
<g><path style="opacity:0.004" fill="#fe0000" d="M 672.5,94.5 C 673.833,95.1667 673.833,95.1667 672.5,94.5 Z"/></g>
<g><path style="opacity:0.004" fill="#000000" d="M 886.5,94.5 C 887.833,95.1667 887.833,95.1667 886.5,94.5 Z"/></g>
<g><path style="opacity:0.008" fill="#000000" d="M 1310.5,94.5 C 1311.83,95.1667 1311.83,95.1667 1310.5,94.5 Z"/></g>
<g><path style="opacity:0.004" fill="#000000" d="M 743.5,96.5 C 742.833,95.1667 742.833,95.1667 743.5,96.5 Z"/></g>
<g><path style="opacity:0.004" fill="#fe0000" d="M 672.5,96.5 C 673.833,97.1667 673.833,97.1667 672.5,96.5 Z"/></g>
<g><path style="opacity:0.004" fill="#000000" d="M 743.5,96.5 C 744.833,97.1667 744.833,97.1667 743.5,96.5 Z"/></g>
<g><path style="opacity:0.004" fill="#000000" d="M 886.5,96.5 C 887.833,97.1667 887.833,97.1667 886.5,96.5 Z"/></g>
<g><path style="opacity:0.004" fill="#000000" d="M 1398.5,96.5 C 1399.83,97.1667 1399.83,97.1667 1398.5,96.5 Z"/></g>
<g><path style="opacity:0.004" fill="#000000" d="M 940.5,97.5 C 941.833,98.1667 941.833,98.1667 940.5,97.5 Z"/></g>
<g><path style="opacity:0.004" fill="#fe0000" d="M 672.5,101.5 C 673.833,102.167 673.833,102.167 672.5,101.5 Z"/></g>
<g><path style="opacity:0.004" fill="#000000" d="M 886.5,101.5 C 887.833,102.167 887.833,102.167 886.5,101.5 Z"/></g>
<g><path style="opacity:0.004" fill="#000000" d="M 940.5,101.5 C 941.833,102.167 941.833,102.167 940.5,101.5 Z"/></g>
<g><path style="opacity:0.004" fill="#000000" d="M 749.5,103.5 C 750.833,104.167 750.833,104.167 749.5,103.5 Z"/></g>
<g><path style="opacity:0.004" fill="#000000" d="M 1408.5,105.5 C 1409.83,106.167 1409.83,106.167 1408.5,105.5 Z"/></g>
<g><path style="opacity:1" fill="#000000" d="M 420.5,107.5 C 425.5,107.5 430.5,107.5 435.5,107.5C 435.5,123.5 435.5,139.5 435.5,155.5C 430.5,155.5 425.5,155.5 420.5,155.5C 420.5,139.5 420.5,123.5 420.5,107.5 Z"/></g>
<g><path style="opacity:1" fill="#000000" d="M 495.5,107.5 C 500.167,107.5 504.833,107.5 509.5,107.5C 509.5,123.5 509.5,139.5 509.5,155.5C 504.833,155.5 500.167,155.5 495.5,155.5C 495.5,139.5 495.5,123.5 495.5,107.5 Z"/></g>
<g><path style="opacity:0.004" fill="#000000" d="M 1414.5,110.5 C 1413.83,111.167 1413.83,111.167 1414.5,110.5 Z"/></g>
<g><path style="opacity:0.008" fill="#7e0000" d="M 672.5,111.5 C 673.833,112.167 673.833,112.167 672.5,111.5 Z"/></g>
<g><path style="opacity:0.008" fill="#000000" d="M 886.5,111.5 C 887.833,112.167 887.833,112.167 886.5,111.5 Z"/></g>
<g><path style="opacity:0.004" fill="#000000" d="M 940.5,111.5 C 941.833,112.167 941.833,112.167 940.5,111.5 Z"/></g>
<g><path style="opacity:0.004" fill="#fe0000" d="M 672.5,113.5 C 673.833,114.167 673.833,114.167 672.5,113.5 Z"/></g>
<g><path style="opacity:0.004" fill="#000000" d="M 886.5,113.5 C 887.833,114.167 887.833,114.167 886.5,113.5 Z"/></g>
<g><path style="opacity:0.004" fill="#fe0000" d="M 673.5,116.5 C 672.833,115.167 672.833,115.167 673.5,116.5 Z"/></g>
<g><path style="opacity:0.004" fill="#000000" d="M 887.5,116.5 C 886.833,115.167 886.833,115.167 887.5,116.5 Z"/></g>
<g><path style="opacity:0.004" fill="#000000" d="M 761.5,116.5 C 762.833,117.167 762.833,117.167 761.5,116.5 Z"/></g>
<g><path style="opacity:0.004" fill="#fe0000" d="M 673.5,117.5 C 673.631,118.239 673.464,118.906 673,119.5C 672.308,118.563 672.475,117.897 673.5,117.5 Z"/></g>
<g><path style="opacity:0.004" fill="#000000" d="M 887.5,117.5 C 887.631,118.239 887.464,118.906 887,119.5C 886.308,118.563 886.475,117.897 887.5,117.5 Z"/></g>
<g><path style="opacity:0.008" fill="#000000" d="M 940.5,118.5 C 941.833,119.167 941.833,119.167 940.5,118.5 Z"/></g>
<g><path style="opacity:0.004" fill="#000000" d="M 940.5,121.5 C 941.833,122.167 941.833,122.167 940.5,121.5 Z"/></g>
<g><path style="opacity:0.004" fill="#000000" d="M 771.5,127.5 C 770.833,126.167 770.833,126.167 771.5,127.5 Z"/></g>
<g><path style="opacity:0.004" fill="#fe0000" d="M 673.5,127.5 C 673.631,128.239 673.464,128.906 673,129.5C 672.308,128.563 672.475,127.897 673.5,127.5 Z"/></g>
<g><path style="opacity:0.004" fill="#000000" d="M 771.5,127.5 C 772.833,128.167 772.833,128.167 771.5,127.5 Z"/></g>
<g><path style="opacity:0.004" fill="#000000" d="M 887.5,127.5 C 887.631,128.239 887.464,128.906 887,129.5C 886.308,128.563 886.475,127.897 887.5,127.5 Z"/></g>
<g><path style="opacity:0.004" fill="#000000" d="M 940.5,128.5 C 941.833,129.167 941.833,129.167 940.5,128.5 Z"/></g>
<g><path style="opacity:0.004" fill="#000000" d="M 772.5,130.5 C 772.56,129.957 772.893,129.624 773.5,129.5C 774.773,130.257 774.773,130.923 773.5,131.5C 772.833,131.5 772.5,131.167 772.5,130.5 Z"/></g>
<g><path style="opacity:0.008" fill="#7e0000" d="M 673.5,133.5 C 672.833,132.167 672.833,132.167 673.5,133.5 Z"/></g>
<g><path style="opacity:0.008" fill="#000000" d="M 887.5,133.5 C 886.833,132.167 886.833,132.167 887.5,133.5 Z"/></g>
<g><path style="opacity:0.004" fill="#000000" d="M 940.5,132.5 C 941.833,133.167 941.833,133.167 940.5,132.5 Z"/></g>
<g><path style="opacity:0.004" fill="#fe0000" d="M 673.5,134.5 C 672.833,135.167 672.833,135.167 673.5,134.5 Z"/></g>
<g><path style="opacity:0.004" fill="#000000" d="M 887.5,134.5 C 886.833,135.167 886.833,135.167 887.5,134.5 Z"/></g>
<g><path style="opacity:0.004" fill="#000000" d="M 779.5,136.5 C 780.833,137.167 780.833,137.167 779.5,136.5 Z"/></g>
<g><path style="opacity:0.004" fill="#000000" d="M 1308.5,138.5 C 1308.37,137.761 1308.54,137.094 1309,136.5C 1309.69,137.437 1309.53,138.103 1308.5,138.5 Z"/></g>
<g><path style="opacity:0.004" fill="#000000" d="M 940.5,139.5 C 941.833,140.167 941.833,140.167 940.5,139.5 Z"/></g>
<g><path style="opacity:0.012" fill="#000000" d="M 1483.5,140.5 C 1484.83,141.167 1484.83,141.167 1483.5,140.5 Z"/></g>
<g><path style="opacity:0.004" fill="#000000" d="M 940.5,142.5 C 941.833,143.167 941.833,143.167 940.5,142.5 Z"/></g>
<g><path style="opacity:0.004" fill="#000000" d="M 1311.5,142.5 C 1312.83,143.167 1312.83,143.167 1311.5,142.5 Z"/></g>
<g><path style="opacity:0.004" fill="#000000" d="M 786.5,144.5 C 787.833,145.167 787.833,145.167 786.5,144.5 Z"/></g>
<g><path style="opacity:0.004" fill="#000000" d="M 1316.5,147.5 C 1317.83,148.167 1317.83,148.167 1316.5,147.5 Z"/></g>
<g><path style="opacity:0.004" fill="#000000" d="M 940.5,149.5 C 941.833,150.167 941.833,150.167 940.5,149.5 Z"/></g>
<g><path style="opacity:0.004" fill="#fe0000" d="M 671.5,152.5 C 672.833,153.167 672.833,153.167 671.5,152.5 Z"/></g>
<g><path style="opacity:0.004" fill="#000000" d="M 885.5,152.5 C 886.833,153.167 886.833,153.167 885.5,152.5 Z"/></g>
<g><path style="opacity:0.004" fill="#000000" d="M 940.5,155.5 C 941.525,155.897 941.692,156.563 941,157.5C 940.536,156.906 940.369,156.239 940.5,155.5 Z"/></g>
<g><path style="opacity:0.004" fill="#000000" d="M 1254.5,156.5 C 1253.83,157.167 1253.83,157.167 1254.5,156.5 Z"/></g>
<g><path style="opacity:0.004" fill="#000000" d="M 726.5,159.5 C 727.167,159.5 727.5,159.833 727.5,160.5C 727.167,160.167 726.833,159.833 726.5,159.5 Z"/></g>
<g><path style="opacity:0.004" fill="#000000" d="M 801.5,160.5 C 800.833,159.167 800.833,159.167 801.5,160.5 Z"/></g>
<g><path style="opacity:0.004" fill="#000000" d="M 727.5,160.5 C 728.833,161.167 728.833,161.167 727.5,160.5 Z"/></g>
<g><path style="opacity:0.004" fill="#000000" d="M 801.5,160.5 C 802.833,161.167 802.833,161.167 801.5,160.5 Z"/></g>
<g><path style="opacity:0.004" fill="#000000" d="M 1257.5,161.5 C 1256.83,162.167 1256.83,162.167 1257.5,161.5 Z"/></g>
<g><path style="opacity:0.004" fill="#fe0000" d="M 671.5,162.5 C 672.833,163.167 672.833,163.167 671.5,162.5 Z"/></g>
<g><path style="opacity:0.004" fill="#000000" d="M 885.5,162.5 C 886.833,163.167 886.833,163.167 885.5,162.5 Z"/></g>
<g><path style="opacity:0.004" fill="#000000" d="M 731.5,163.5 C 730.833,164.167 730.833,164.167 731.5,163.5 Z"/></g>
<g><path style="opacity:0.004" fill="#000000" d="M 732.5,166.5 C 731.833,165.167 731.833,165.167 732.5,166.5 Z"/></g>
<g><path style="opacity:0.004" fill="#fe0000" d="M 726.5,166.5 C 727.833,167.167 727.833,167.167 726.5,166.5 Z"/></g>
<g><path style="opacity:0.004" fill="#000000" d="M 732.5,166.5 C 733.167,166.5 733.5,166.833 733.5,167.5C 733.167,167.167 732.833,166.833 732.5,166.5 Z"/></g>
<g><path style="opacity:0.004" fill="#000000" d="M 940.5,166.5 C 941.833,167.167 941.833,167.167 940.5,166.5 Z"/></g>
<g><path style="opacity:0.004" fill="#000000" d="M 733.5,167.5 C 734.167,167.5 734.5,167.833 734.5,168.5C 734.167,168.167 733.833,167.833 733.5,167.5 Z"/></g>
<g><path style="opacity:0.004" fill="#000000" d="M 1262.5,167.5 C 1261.83,168.167 1261.83,168.167 1262.5,167.5 Z"/></g>
<g><path style="opacity:0.004" fill="#000000" d="M 734.5,168.5 C 735.167,168.5 735.5,168.833 735.5,169.5C 735.167,169.167 734.833,168.833 734.5,168.5 Z"/></g>
<g><path style="opacity:0.004" fill="#fe0000" d="M 726.5,169.5 C 727.525,169.897 727.692,170.563 727,171.5C 726.536,170.906 726.369,170.239 726.5,169.5 Z"/></g>
<g><path style="opacity:0.004" fill="#000000" d="M 735.5,169.5 C 736.833,170.167 736.833,170.167 735.5,169.5 Z"/></g>
<g><path style="opacity:0.004" fill="#000000" d="M 810.5,170.5 C 809.833,169.167 809.833,169.167 810.5,170.5 Z"/></g>
<g><path style="opacity:0.004" fill="#000000" d="M 940.5,169.5 C 941.525,169.897 941.692,170.563 941,171.5C 940.536,170.906 940.369,170.239 940.5,169.5 Z"/></g>
<g><path style="opacity:0.004" fill="#000000" d="M 810.5,170.5 C 811.833,171.167 811.833,171.167 810.5,170.5 Z"/></g>
<g><path style="opacity:0.008" fill="#000000" d="M 812.5,173.5 C 811.833,172.167 811.833,172.167 812.5,173.5 Z"/></g>
<g><path style="opacity:0.004" fill="#000000" d="M 812.5,173.5 C 813.833,174.167 813.833,174.167 812.5,173.5 Z"/></g>
<g><path style="opacity:0.004" fill="#000000" d="M 741.5,176.5 C 740.833,175.167 740.833,175.167 741.5,176.5 Z"/></g>
<g><path style="opacity:0.004" fill="#000000" d="M 741.5,176.5 C 742.833,177.167 742.833,177.167 741.5,176.5 Z"/></g>
<g><path style="opacity:0.004" fill="#fe0000" d="M 671.5,178.5 C 672.833,179.167 672.833,179.167 671.5,178.5 Z"/></g>
<g><path style="opacity:0.004" fill="#000000" d="M 885.5,178.5 C 886.833,179.167 886.833,179.167 885.5,178.5 Z"/></g>
<g><path style="opacity:0.004" fill="#000000" d="M 745.5,180.5 C 744.833,179.167 744.833,179.167 745.5,180.5 Z"/></g>
<g><path style="opacity:0.004" fill="#000000" d="M 745.5,180.5 C 746.167,180.5 746.5,180.833 746.5,181.5C 746.167,181.167 745.833,180.833 745.5,180.5 Z"/></g>
<g><path style="opacity:0.004" fill="#000000" d="M 819.5,180.5 C 820.833,181.167 820.833,181.167 819.5,180.5 Z"/></g>
<g><path style="opacity:0.004" fill="#000000" d="M 746.5,181.5 C 746.833,181.5 747.167,181.5 747.5,181.5C 747.315,182.17 746.981,182.17 746.5,181.5 Z"/></g>
<g><path style="opacity:0.934" fill="#000000" d="M 418.5,182.5 C 452.833,182.5 487.167,182.5 521.5,182.5C 525.142,205.26 520.309,225.927 507,244.5C 484.33,267.153 460.83,268.153 436.5,247.5C 420.788,228.677 414.788,207.01 418.5,182.5 Z M 431.5,195.5 C 457.167,195.5 482.833,195.5 508.5,195.5C 509.391,216.217 501.391,232.384 484.5,244C 467.83,250.531 453.996,246.697 443,232.5C 435.868,221.265 432.034,208.932 431.5,195.5 Z"/></g>
<g><path style="opacity:0.004" fill="#000000" d="M 820.5,182.5 C 821.833,183.167 821.833,183.167 820.5,182.5 Z"/></g>
<g><path style="opacity:0.004" fill="#000000" d="M 748.5,184.5 C 747.833,183.167 747.833,183.167 748.5,184.5 Z"/></g>
<g><path style="opacity:0.004" fill="#000000" d="M 748.5,184.5 C 749.833,185.167 749.833,185.167 748.5,184.5 Z"/></g>
<g><path style="opacity:0.004" fill="#000000" d="M 822.5,184.5 C 823.833,185.167 823.833,185.167 822.5,184.5 Z"/></g>
<g><path style="opacity:0.004" fill="#fe0000" d="M 726.5,187.5 C 727.833,188.167 727.833,188.167 726.5,187.5 Z"/></g>
<g><path style="opacity:0.004" fill="#000000" d="M 940.5,187.5 C 941.833,188.167 941.833,188.167 940.5,187.5 Z"/></g>
<g><path style="opacity:0.004" fill="#fe0000" d="M 671.5,188.5 C 672.833,189.167 672.833,189.167 671.5,188.5 Z"/></g>
<g><path style="opacity:0.004" fill="#000000" d="M 885.5,188.5 C 886.833,189.167 886.833,189.167 885.5,188.5 Z"/></g>
<g><path style="opacity:0.004" fill="#000000" d="M 755.5,191.5 C 754.833,190.167 754.833,190.167 755.5,191.5 Z"/></g>
<g><path style="opacity:0.004" fill="#000000" d="M 755.5,191.5 C 755.833,191.5 756.167,191.5 756.5,191.5C 756.315,192.17 755.981,192.17 755.5,191.5 Z"/></g>
<g><path style="opacity:0.004" fill="#fe0000" d="M 671.5,193.5 C 672.833,194.167 672.833,194.167 671.5,193.5 Z"/></g>
<g><path style="opacity:0.004" fill="#000000" d="M 885.5,193.5 C 886.833,194.167 886.833,194.167 885.5,193.5 Z"/></g>
<g><path style="opacity:0.004" fill="#000000" d="M 831.5,194.5 C 832.833,195.167 832.833,195.167 831.5,194.5 Z"/></g>
<g><path style="opacity:0.004" fill="#fe0000" d="M 671.5,195.5 C 672.833,196.167 672.833,196.167 671.5,195.5 Z"/></g>
<g><path style="opacity:0.004" fill="#000000" d="M 885.5,195.5 C 886.833,196.167 886.833,196.167 885.5,195.5 Z"/></g>
<g><path style="opacity:0.004" fill="#000000" d="M 835.5,199.5 C 836.833,200.167 836.833,200.167 835.5,199.5 Z"/></g>
<g><path style="opacity:0.008" fill="#000000" d="M 839.5,203.5 C 838.833,202.167 838.833,202.167 839.5,203.5 Z"/></g>
<g><path style="opacity:0.004" fill="#000000" d="M 839.5,203.5 C 840.833,204.167 840.833,204.167 839.5,203.5 Z"/></g>
<g><path style="opacity:0.004" fill="#fe0000" d="M 671.5,205.5 C 672.833,206.167 672.833,206.167 671.5,205.5 Z"/></g>
<g><path style="opacity:0.004" fill="#000000" d="M 841.5,207.5 C 841.369,206.761 841.536,206.094 842,205.5C 842.692,206.437 842.525,207.103 841.5,207.5 Z"/></g>
<g><path style="opacity:0.004" fill="#000000" d="M 885.5,205.5 C 886.833,206.167 886.833,206.167 885.5,205.5 Z"/></g>
<g><path style="opacity:0.004" fill="#fe0000" d="M 725.5,210.5 C 726.833,211.167 726.833,211.167 725.5,210.5 Z"/></g>
<g><path style="opacity:0.004" fill="#000000" d="M 939.5,210.5 C 940.833,211.167 940.833,211.167 939.5,210.5 Z"/></g>
<g><path style="opacity:0.004" fill="#000000" d="M 774.5,211.5 C 773.833,212.167 773.833,212.167 774.5,211.5 Z"/></g>
<g><path style="opacity:0.004" fill="#fe0000" d="M 725.5,214.5 C 725.369,213.761 725.536,213.094 726,212.5C 726.692,213.437 726.525,214.103 725.5,214.5 Z"/></g>
<g><path style="opacity:0.004" fill="#000000" d="M 847.5,213.5 C 848.077,212.227 848.743,212.227 849.5,213.5C 849.03,214.463 848.363,214.463 847.5,213.5 Z"/></g>
<g><path style="opacity:0.004" fill="#000000" d="M 939.5,214.5 C 939.369,213.761 939.536,213.094 940,212.5C 940.692,213.437 940.525,214.103 939.5,214.5 Z"/></g>
<g><path style="opacity:0.004" fill="#fe0000" d="M 725.5,216.5 C 726.833,217.167 726.833,217.167 725.5,216.5 Z"/></g>
<g><path style="opacity:0.004" fill="#000000" d="M 939.5,216.5 C 940.833,217.167 940.833,217.167 939.5,216.5 Z"/></g>
<g><path style="opacity:0.004" fill="#000000" d="M 851.5,217.5 C 852.833,218.167 852.833,218.167 851.5,217.5 Z"/></g>
<g><path style="opacity:0.004" fill="#000000" d="M 854.5,220.5 C 855.833,221.167 855.833,221.167 854.5,220.5 Z"/></g>
<g><path style="opacity:0.004" fill="#fe0000" d="M 725.5,222.5 C 726.833,223.167 726.833,223.167 725.5,222.5 Z"/></g>
<g><path style="opacity:0.004" fill="#000000" d="M 858.5,224.5 C 857.475,224.103 857.308,223.437 858,222.5C 858.464,223.094 858.631,223.761 858.5,224.5 Z"/></g>
<g><path style="opacity:0.004" fill="#000000" d="M 939.5,222.5 C 940.833,223.167 940.833,223.167 939.5,222.5 Z"/></g>
<g><path style="opacity:0.004" fill="#000000" d="M 1454.5,223.5 C 1453.83,222.167 1453.83,222.167 1454.5,223.5 Z"/></g>
<g><path style="opacity:0.008" fill="#000000" d="M 1454.5,223.5 C 1455.17,223.5 1455.5,223.833 1455.5,224.5C 1455.17,224.167 1454.83,223.833 1454.5,223.5 Z"/></g>
<g><path style="opacity:0.004" fill="#000000" d="M 858.5,224.5 C 859.833,225.167 859.833,225.167 858.5,224.5 Z"/></g>
<g><path style="opacity:0.004" fill="#000000" d="M 1455.5,224.5 C 1456.83,225.167 1456.83,225.167 1455.5,224.5 Z"/></g>
<g><path style="opacity:0.004" fill="#000000" d="M 787.5,226.5 C 786.833,227.167 786.833,227.167 787.5,226.5 Z"/></g>
<g><path style="opacity:0.004" fill="#fe0000" d="M 725.5,227.5 C 726.833,228.167 726.833,228.167 725.5,227.5 Z"/></g>
<g><path style="opacity:0.004" fill="#000000" d="M 939.5,227.5 C 940.833,228.167 940.833,228.167 939.5,227.5 Z"/></g>
<g><path style="opacity:0.004" fill="#000000" d="M 1461.5,229.5 C 1460.83,228.167 1460.83,228.167 1461.5,229.5 Z"/></g>
<g><path style="opacity:0.004" fill="#fe0000" d="M 725.5,229.5 C 726.833,230.167 726.833,230.167 725.5,229.5 Z"/></g>
<g><path style="opacity:0.004" fill="#000000" d="M 939.5,229.5 C 940.833,230.167 940.833,230.167 939.5,229.5 Z"/></g>
<g><path style="opacity:0.004" fill="#000000" d="M 1461.5,229.5 C 1462.83,230.167 1462.83,230.167 1461.5,229.5 Z"/></g>
<g><path style="opacity:0.004" fill="#fe0000" d="M 725.5,231.5 C 726.833,232.167 726.833,232.167 725.5,231.5 Z"/></g>
<g><path style="opacity:0.004" fill="#000000" d="M 939.5,231.5 C 940.833,232.167 940.833,232.167 939.5,231.5 Z"/></g>
<g><path style="opacity:0.004" fill="#fe0000" d="M 725.5,233.5 C 726.833,234.167 726.833,234.167 725.5,233.5 Z"/></g>
<g><path style="opacity:0.004" fill="#000000" d="M 939.5,233.5 C 940.833,234.167 940.833,234.167 939.5,233.5 Z"/></g>
<g><path style="opacity:0.004" fill="#000000" d="M 795.5,234.5 C 794.833,235.167 794.833,235.167 795.5,234.5 Z"/></g>
<g><path style="opacity:0.004" fill="#000000" d="M 867.5,234.5 C 868.833,235.167 868.833,235.167 867.5,234.5 Z"/></g>
<g><path style="opacity:0.004" fill="#000000" d="M 795.5,236.5 C 796.833,237.167 796.833,237.167 795.5,236.5 Z"/></g>
<g><path style="opacity:0.004" fill="#000000" d="M 871.5,238.5 C 870.833,237.167 870.833,237.167 871.5,238.5 Z"/></g>
<g><path style="opacity:0.004" fill="#000000" d="M 871.5,238.5 C 872.833,239.167 872.833,239.167 871.5,238.5 Z"/></g>
<g><path style="opacity:0.004" fill="#000000" d="M 1470.5,239.5 C 1471.83,240.167 1471.83,240.167 1470.5,239.5 Z"/></g>
<g><path style="opacity:0.004" fill="#000000" d="M 872.5,240.5 C 873.833,241.167 873.833,241.167 872.5,240.5 Z"/></g>
<g><path style="opacity:0.004" fill="#000000" d="M 1394.5,242.5 C 1394.5,242.833 1394.5,243.167 1394.5,243.5C 1393.83,243.019 1393.83,242.685 1394.5,242.5 Z"/></g>
<g><path style="opacity:0.004" fill="#fe0000" d="M 725.5,243.5 C 726.833,244.167 726.833,244.167 725.5,243.5 Z"/></g>
<g><path style="opacity:0.004" fill="#000000" d="M 939.5,243.5 C 940.833,244.167 940.833,244.167 939.5,243.5 Z"/></g>
<g><path style="opacity:0.004" fill="#000000" d="M 1394.5,243.5 C 1395.83,244.167 1395.83,244.167 1394.5,243.5 Z"/></g>
<g><path style="opacity:0.004" fill="#000000" d="M 802.5,244.5 C 803.833,245.167 803.833,245.167 802.5,244.5 Z"/></g>
<g><path style="opacity:0.004" fill="#000000" d="M 877.5,245.5 C 878.833,246.167 878.833,246.167 877.5,245.5 Z"/></g>
<g><path style="opacity:0.004" fill="#000000" d="M 805.5,247.5 C 806.833,248.167 806.833,248.167 805.5,247.5 Z"/></g>
<g><path style="opacity:0.004" fill="#000000" d="M 1400.5,247.5 C 1401.83,248.167 1401.83,248.167 1400.5,247.5 Z"/></g>
<g><path style="opacity:0.004" fill="#fe0000" d="M 725.5,248.5 C 726.833,249.167 726.833,249.167 725.5,248.5 Z"/></g>
<g><path style="opacity:0.004" fill="#000000" d="M 939.5,248.5 C 940.833,249.167 940.833,249.167 939.5,248.5 Z"/></g>
<g><path style="opacity:0.004" fill="#000000" d="M 1477.5,250.5 C 1477.37,249.761 1477.54,249.094 1478,248.5C 1478.69,249.437 1478.53,250.103 1477.5,250.5 Z"/></g>
<g><path style="opacity:0.004" fill="#fe0000" d="M 725.5,250.5 C 726.833,251.167 726.833,251.167 725.5,250.5 Z"/></g>
<g><path style="opacity:0.004" fill="#000000" d="M 881.5,250.5 C 882.833,251.167 882.833,251.167 881.5,250.5 Z"/></g>
<g><path style="opacity:0.004" fill="#000000" d="M 939.5,250.5 C 940.833,251.167 940.833,251.167 939.5,250.5 Z"/></g>
<g><path style="opacity:0.018" fill="#000000" d="M 1044.5,251.5 C 1045.53,251.897 1045.69,252.563 1045,253.5C 1044.54,252.906 1044.37,252.239 1044.5,251.5 Z"/></g>
<g><path style="opacity:0.004" fill="#000000" d="M 1408.5,253.5 C 1407.83,252.167 1407.83,252.167 1408.5,253.5 Z"/></g>
<g><path style="opacity:0.004" fill="#000000" d="M 1408.5,253.5 C 1409.17,253.5 1409.5,253.833 1409.5,254.5C 1409.17,254.167 1408.83,253.833 1408.5,253.5 Z"/></g>
<g><path style="opacity:0.004" fill="#000000" d="M 813.5,254.5 C 812.833,255.167 812.833,255.167 813.5,254.5 Z"/></g>
<g><path style="opacity:0.004" fill="#000000" d="M 1409.5,254.5 C 1410.83,255.167 1410.83,255.167 1409.5,254.5 Z"/></g>
<g><path style="opacity:0.004" fill="#fe0000" d="M 670.5,256.5 C 671.833,257.167 671.833,257.167 670.5,256.5 Z"/></g>
<g><path style="opacity:0.004" fill="#000000" d="M 814.5,257.5 C 815.833,258.167 815.833,258.167 814.5,257.5 Z"/></g>
<g><path style="opacity:0.008" fill="#000000" d="M 1045.5,257.5 C 1046.83,258.167 1046.83,258.167 1045.5,257.5 Z"/></g>
<g><path style="opacity:0.004" fill="#000000" d="M 1414.5,258.5 C 1413.83,257.167 1413.83,257.167 1414.5,258.5 Z"/></g>
<g><path style="opacity:0.004" fill="#fe0000" d="M 725.5,258.5 C 726.833,259.167 726.833,259.167 725.5,258.5 Z"/></g>
<g><path style="opacity:0.004" fill="#000000" d="M 939.5,258.5 C 940.833,259.167 940.833,259.167 939.5,258.5 Z"/></g>
<g><path style="opacity:0.008" fill="#000000" d="M 1414.5,258.5 C 1415.83,259.167 1415.83,259.167 1414.5,258.5 Z"/></g>
<g><path style="opacity:0.004" fill="#fe0000" d="M 725.5,260.5 C 726.833,261.167 726.833,261.167 725.5,260.5 Z"/></g>
<g><path style="opacity:0.004" fill="#000000" d="M 818.5,261.5 C 817.833,260.167 817.833,260.167 818.5,261.5 Z"/></g>
<g><path style="opacity:0.004" fill="#000000" d="M 939.5,260.5 C 940.833,261.167 940.833,261.167 939.5,260.5 Z"/></g>
<g><path style="opacity:0.004" fill="#000000" d="M 1045.5,260.5 C 1046.83,261.167 1046.83,261.167 1045.5,260.5 Z"/></g>
<g><path style="opacity:0.004" fill="#000000" d="M 818.5,261.5 C 818.833,261.5 819.167,261.5 819.5,261.5C 819.315,262.17 818.981,262.17 818.5,261.5 Z"/></g>
<g><path style="opacity:0.035" fill="#000000" d="M 1045.5,261.5 C 1044.83,262.167 1044.83,262.167 1045.5,261.5 Z"/></g>
<g><path style="opacity:0.004" fill="#fe0000" d="M 725.5,265.5 C 726.833,266.167 726.833,266.167 725.5,265.5 Z"/></g>
<g><path style="opacity:0.006" fill="#000000" d="M 823.5,265.5 C 824.167,265.5 824.5,265.833 824.5,266.5C 824.5,267.167 824.5,267.833 824.5,268.5C 822.618,267.779 822.285,266.779 823.5,265.5 Z"/></g>
<g><path style="opacity:0.004" fill="#000000" d="M 939.5,265.5 C 940.833,266.167 940.833,266.167 939.5,265.5 Z"/></g>
<g><path style="opacity:0.004" fill="#fe0000" d="M 670.5,266.5 C 671.833,267.167 671.833,267.167 670.5,266.5 Z"/></g>
<g><path style="opacity:0.005" fill="#000000" d="M 824.5,268.5 C 825.627,269.122 826.627,269.955 827.5,271C 825.511,271.519 824.511,270.686 824.5,268.5 Z"/></g>
<g><path style="opacity:0.004" fill="#000000" d="M 1422.5,268.5 C 1423.83,269.167 1423.83,269.167 1422.5,268.5 Z"/></g>
<g><path style="opacity:0.004" fill="#fe0000" d="M 670.5,270.5 C 671.525,270.897 671.692,271.563 671,272.5C 670.536,271.906 670.369,271.239 670.5,270.5 Z"/></g>
<g><path style="opacity:0.004" fill="#000000" d="M 1280.5,270.5 C 1281.83,271.167 1281.83,271.167 1280.5,270.5 Z"/></g>
<g><path style="opacity:0.008" fill="#000000" d="M 832.5,275.5 C 833.167,275.5 833.5,275.833 833.5,276.5C 833.5,277.167 833.5,277.833 833.5,278.5C 831.618,277.779 831.285,276.779 832.5,275.5 Z"/></g>
<g><path style="opacity:0.005" fill="#000000" d="M 833.5,278.5 C 834.627,279.122 835.627,279.955 836.5,281C 834.511,281.519 833.511,280.686 833.5,278.5 Z"/></g>
<g><path style="opacity:0.004" fill="#000000" d="M 1429.5,278.5 C 1428.83,279.167 1428.83,279.167 1429.5,278.5 Z"/></g>
<g><path style="opacity:0.004" fill="#fe0000" d="M 670.5,280.5 C 671.525,280.897 671.692,281.563 671,282.5C 670.536,281.906 670.369,281.239 670.5,280.5 Z"/></g>
<g><path style="opacity:0.004" fill="#fe0000" d="M 724.5,281.5 C 725.833,282.167 725.833,282.167 724.5,281.5 Z"/></g>
<g><path style="opacity:0.004" fill="#000000" d="M 938.5,281.5 C 939.833,282.167 939.833,282.167 938.5,281.5 Z"/></g>
<g><path style="opacity:0.004" fill="#fe0000" d="M 670.5,287.5 C 671.833,288.167 671.833,288.167 670.5,287.5 Z"/></g>
<g><path style="opacity:0.004" fill="#000000" d="M 842.5,288.5 C 841.833,287.167 841.833,287.167 842.5,288.5 Z"/></g>
<g><path style="opacity:0.004" fill="#000000" d="M 842.5,288.5 C 843.167,288.5 843.5,288.833 843.5,289.5C 843.167,289.167 842.833,288.833 842.5,288.5 Z"/></g>
<g><path style="opacity:0.007" fill="#000000" d="M 843.5,289.5 C 844.289,289.783 844.956,290.283 845.5,291C 844.184,291.528 843.517,291.028 843.5,289.5 Z"/></g>
<g><path style="opacity:0.008" fill="#000000" d="M 847.5,292.5 C 846.833,293.167 846.833,293.167 847.5,292.5 Z"/></g>
<g><path style="opacity:0.004" fill="#000000" d="M 1281.5,293.5 C 1282.83,294.167 1282.83,294.167 1281.5,293.5 Z"/></g>
<g><path style="opacity:0.004" fill="#000000" d="M 849.5,296.5 C 848.833,295.167 848.833,295.167 849.5,296.5 Z"/></g>
<g><path style="opacity:0.004" fill="#000000" d="M 849.5,296.5 C 850.167,296.5 850.5,296.833 850.5,297.5C 850.167,297.167 849.833,296.833 849.5,296.5 Z"/></g>
<g><path style="opacity:0.008" fill="#000000" d="M 850.5,297.5 C 851.833,298.167 851.833,298.167 850.5,297.5 Z"/></g>
<g><path style="opacity:0.004" fill="#000000" d="M 1287.5,301.5 C 1286.83,301.5 1286.5,301.167 1286.5,300.5C 1287.05,298.343 1288.05,298.51 1289.5,301C 1288.91,301.464 1288.24,301.631 1287.5,301.5 Z"/></g>
<g><path style="opacity:0.004" fill="#000000" d="M 1431.5,302.5 C 1430.47,302.103 1430.31,301.437 1431,300.5C 1431.46,301.094 1431.63,301.761 1431.5,302.5 Z"/></g>
<g><path style="opacity:0.004" fill="#fe0000" d="M 671.5,301.5 C 671.631,302.239 671.464,302.906 671,303.5C 670.308,302.563 670.475,301.897 671.5,301.5 Z"/></g>
<g><path style="opacity:0.004" fill="#000000" d="M 856.5,302.5 C 855.833,303.167 855.833,303.167 856.5,302.5 Z"/></g>
<g><path style="opacity:0.004" fill="#000000" d="M 1294.5,305.5 C 1293.83,305.5 1293.17,305.5 1292.5,305.5C 1292.79,303.067 1293.45,303.067 1294.5,305.5 Z"/></g>
<g><path style="opacity:0.008" fill="#7e0000" d="M 670.5,304.5 C 671.833,305.167 671.833,305.167 670.5,304.5 Z"/></g>
<g><path style="opacity:0.004" fill="#000000" d="M 857.5,305.5 C 856.833,304.167 856.833,304.167 857.5,305.5 Z"/></g>
<g><path style="opacity:0.004" fill="#000000" d="M 857.5,305.5 C 858.833,306.167 858.833,306.167 857.5,305.5 Z"/></g>
<g><path style="opacity:0.004" fill="#000000" d="M 1294.5,305.5 C 1295.83,306.167 1295.83,306.167 1294.5,305.5 Z"/></g>
<g><path style="opacity:0.004" fill="#000000" d="M 860.5,308.5 C 859.833,307.167 859.833,307.167 860.5,308.5 Z"/></g>
<g><path style="opacity:0.004" fill="#fe0000" d="M 671.5,308.5 C 670.833,309.167 670.833,309.167 671.5,308.5 Z"/></g>
<g><path style="opacity:0.004" fill="#000000" d="M 860.5,308.5 C 861.167,308.5 861.5,308.833 861.5,309.5C 861.167,309.167 860.833,308.833 860.5,308.5 Z"/></g>
<g><path style="opacity:0.004" fill="#fe0000" d="M 724.5,309.5 C 725.833,310.167 725.833,310.167 724.5,309.5 Z"/></g>
<g><path style="opacity:0.008" fill="#000000" d="M 861.5,309.5 C 862.167,309.5 862.5,309.833 862.5,310.5C 862.167,310.167 861.833,309.833 861.5,309.5 Z"/></g>
<g><path style="opacity:0.004" fill="#000000" d="M 938.5,309.5 C 939.833,310.167 939.833,310.167 938.5,309.5 Z"/></g>
<g><path style="opacity:0.004" fill="#000000" d="M 862.5,310.5 C 862.833,310.5 863.167,310.5 863.5,310.5C 863.315,311.17 862.981,311.17 862.5,310.5 Z"/></g>
<g><path style="opacity:0.004" fill="#000000" d="M 1301.5,310.5 C 1302.83,311.167 1302.83,311.167 1301.5,310.5 Z"/></g>
<g><path style="opacity:0.004" fill="#000000" d="M 864.5,313.5 C 863.833,312.167 863.833,312.167 864.5,313.5 Z"/></g>
<g><path style="opacity:0.004" fill="#000000" d="M 864.5,313.5 C 865.167,313.5 865.5,313.833 865.5,314.5C 865.167,314.167 864.833,313.833 864.5,313.5 Z"/></g>
<g><path style="opacity:0.004" fill="#000000" d="M 865.5,314.5 C 866.833,315.167 866.833,315.167 865.5,314.5 Z"/></g>
<g><path style="opacity:0.004" fill="#000000" d="M 1308.5,314.5 C 1309.83,315.167 1309.83,315.167 1308.5,314.5 Z"/></g>
<g><path style="opacity:0.004" fill="#fe0000" d="M 671.5,315.5 C 670.833,316.167 670.833,316.167 671.5,315.5 Z"/></g>
<g><path style="opacity:0.004" fill="#000000" d="M 870.5,319.5 C 869.833,318.167 869.833,318.167 870.5,319.5 Z"/></g>
<g><path style="opacity:0.004" fill="#fe0000" d="M 724.5,319.5 C 725.833,320.167 725.833,320.167 724.5,319.5 Z"/></g>
<g><path style="opacity:0.004" fill="#000000" d="M 870.5,319.5 C 871.167,319.833 871.833,320.167 872.5,320.5C 871.377,321.757 870.711,321.424 870.5,319.5 Z"/></g>
<g><path style="opacity:0.004" fill="#000000" d="M 938.5,319.5 C 939.833,320.167 939.833,320.167 938.5,319.5 Z"/></g>
<g><path style="opacity:0.004" fill="#000000" d="M 1486.5,319.5 C 1487.83,320.167 1487.83,320.167 1486.5,319.5 Z"/></g>
<g><path style="opacity:0.004" fill="#fe0000" d="M 724.5,321.5 C 725.833,322.167 725.833,322.167 724.5,321.5 Z"/></g>
<g><path style="opacity:0.004" fill="#000000" d="M 938.5,321.5 C 939.833,322.167 939.833,322.167 938.5,321.5 Z"/></g>
<g><path style="opacity:0.004" fill="#000000" d="M 873.5,323.5 C 872.833,322.167 872.833,322.167 873.5,323.5 Z"/></g>
<g><path style="opacity:0.004" fill="#000000" d="M 873.5,323.5 C 874.833,324.167 874.833,324.167 873.5,323.5 Z"/></g>
<g><path style="opacity:0.004" fill="#000000" d="M 1484.5,324.5 C 1485.83,325.167 1485.83,325.167 1484.5,324.5 Z"/></g>
<g><path style="opacity:0.004" fill="#000000" d="M 1391.5,330.5 C 1392.83,331.167 1392.83,331.167 1391.5,330.5 Z"/></g>
<g><path style="opacity:0.004" fill="#000000" d="M 1477.5,335.5 C 1478.83,336.167 1478.83,336.167 1477.5,335.5 Z"/></g>
<g><path style="opacity:0.004" fill="#000000" d="M 1462.5,350.5 C 1463.83,351.167 1463.83,351.167 1462.5,350.5 Z"/></g>
<g><path style="opacity:0.004" fill="#000000" d="M 1462.5,351.5 C 1461.83,352.167 1461.83,352.167 1462.5,351.5 Z"/></g>
<g><path style="opacity:0.004" fill="#000000" d="M 1461.5,352.5 C 1460.83,353.167 1460.83,353.167 1461.5,352.5 Z"/></g>
<g><path style="opacity:0.004" fill="#000000" d="M 1455.5,355.5 C 1456.83,356.167 1456.83,356.167 1455.5,355.5 Z"/></g>
<g><path style="opacity:0.004" fill="#000000" d="M 1455.5,356.5 C 1454.83,357.167 1454.83,357.167 1455.5,356.5 Z"/></g>
<g><path style="opacity:0.004" fill="#000000" d="M 1448.5,359.5 C 1449.83,360.167 1449.83,360.167 1448.5,359.5 Z"/></g>
<g><path style="opacity:0.004" fill="#000000" d="M 1290.5,360.5 C 1291.83,361.167 1291.83,361.167 1290.5,360.5 Z"/></g>
<g><path style="opacity:0.004" fill="#000000" d="M 1448.5,360.5 C 1447.83,361.167 1447.83,361.167 1448.5,360.5 Z"/></g>
<g><path style="opacity:0.004" fill="#000000" d="M 1292.5,361.5 C 1293.83,362.167 1293.83,362.167 1292.5,361.5 Z"/></g>
<g><path style="opacity:0.004" fill="#000000" d="M 1445.5,361.5 C 1446.83,362.167 1446.83,362.167 1445.5,361.5 Z"/></g>
<g><path style="opacity:0.004" fill="#000000" d="M 1437.5,365.5 C 1438.83,366.167 1438.83,366.167 1437.5,365.5 Z"/></g>
<g><path style="opacity:0.004" fill="#000000" d="M 1422.5,370.5 C 1423.83,371.167 1423.83,371.167 1422.5,370.5 Z"/></g>
<g><path style="opacity:0.02" fill="#000000" d="M 643.5,373.5 C 644.833,374.167 644.833,374.167 643.5,373.5 Z"/></g>
</svg>
