<?xml version="1.0" encoding="UTF-8"?>
<svg version="1.1" xmlns="http://www.w3.org/2000/svg" width="47" height="48">
<path d="M0 0 C11.22 0 22.44 0 34 0 C34.495 1.98 34.495 1.98 35 4 C35.9590625 4.2165625 35.9590625 4.2165625 36.9375 4.4375 C39 5 39 5 40 6 C40.25380234 10.47331958 40.18522721 14.9578346 40.1875 19.4375 C40.19974609 20.70400391 40.21199219 21.97050781 40.22460938 23.27539062 C40.22654297 24.48259766 40.22847656 25.68980469 40.23046875 26.93359375 C40.23457764 28.04790771 40.23868652 29.16222168 40.24291992 30.31030273 C40 33 40 33 38 35 C35.1796875 35.4140625 35.1796875 35.4140625 31.875 35.625 C30.77929688 35.69976562 29.68359375 35.77453125 28.5546875 35.8515625 C27.71164063 35.90054688 26.86859375 35.94953125 26 36 C26 36.99 26 37.98 26 39 C27.65 39.33 29.3 39.66 31 40 C30.505 40.99 30.505 40.99 30 42 C21.09 42 12.18 42 3 42 C3.33 41.01 3.66 40.02 4 39 C5.485 38.505 5.485 38.505 7 38 C7.33 37.34 7.66 36.68 8 36 C6.60974609 35.90912109 6.60974609 35.90912109 5.19140625 35.81640625 C3.99386719 35.73261719 2.79632813 35.64882813 1.5625 35.5625 C0.36753906 35.48128906 -0.82742188 35.40007813 -2.05859375 35.31640625 C-5 35 -5 35 -6 34 C-6.08775605 31.85441173 -6.10695219 29.70595579 -6.09765625 27.55859375 C-6.09443359 26.25341797 -6.09121094 24.94824219 -6.08789062 23.60351562 C-6.07953401 22.2148431 -6.07106905 20.82617123 -6.0625 19.4375 C-6.05748666 18.04492344 -6.05292347 16.65234519 -6.04882812 15.25976562 C-6.03699434 11.8398013 -6.0205088 8.41992156 -6 5 C-4.35 4.67 -2.7 4.34 -1 4 C-0.67 2.68 -0.34 1.36 0 0 Z M2 2 C2 3.32 2 4.64 2 6 C11.9 6 21.8 6 32 6 C32 4.68 32 3.36 32 2 C22.1 2 12.2 2 2 2 Z M-3 6 C-4.74545605 7.74545605 -4.1302316 10.16124217 -4.1328125 12.53125 C-4.13410156 13.65144531 -4.13539062 14.77164062 -4.13671875 15.92578125 C-4.13285156 17.10527344 -4.12898437 18.28476562 -4.125 19.5 C-4.12886719 20.67949219 -4.13273438 21.85898437 -4.13671875 23.07421875 C-4.13542969 24.19441406 -4.13414063 25.31460937 -4.1328125 26.46875 C-4.13168457 27.50451172 -4.13055664 28.54027344 -4.12939453 29.60742188 C-4.26965153 31.95297823 -4.26965153 31.95297823 -3 33 C-0.04294679 33.08868299 2.89065056 33.11520296 5.84765625 33.09765625 C6.7340831 33.0962413 7.62050995 33.09482635 8.53379822 33.09336853 C11.37673254 33.08775215 14.21958931 33.07519691 17.0625 33.0625 C18.98502491 33.05748711 20.90755104 33.05292384 22.83007812 33.04882812 C27.55343964 33.03862648 32.27663258 33.01905437 37 33 C37 24.09 37 15.18 37 6 C36.34 6 35.68 6 35 6 C34.67 13.92 34.34 21.84 34 30 C29.47926628 30.02293495 24.95873379 30.04285442 20.43798828 30.05493164 C18.89956987 30.05996552 17.36115625 30.06679308 15.82275391 30.07543945 C13.61359474 30.08754639 11.40449874 30.09323769 9.1953125 30.09765625 C8.16085495 30.10539818 8.16085495 30.10539818 7.10549927 30.11329651 C2.22774341 30.11387171 2.22774341 30.11387171 0 29 C-0.33 21.41 -0.66 13.82 -1 6 C-1.66 6 -2.32 6 -3 6 Z M2 8 C2 14.6 2 21.2 2 28 C11.9 28 21.8 28 32 28 C32 21.4 32 14.8 32 8 C22.1 8 12.2 8 2 8 Z M11 35 C10.67 36.32 10.34 37.64 10 39 C14.62 39 19.24 39 24 39 C23.34 37.68 22.68 36.36 22 35 C18.37 35 14.74 35 11 35 Z " fill="#B5CBDA" transform="translate(7,5)"/>
<path d="M0 0 C11.22 0 22.44 0 34 0 C34.495 1.98 34.495 1.98 35 4 C35.9590625 4.2165625 35.9590625 4.2165625 36.9375 4.4375 C39 5 39 5 40 6 C40.09983058 7.98757028 40.13080753 9.9786752 40.1328125 11.96875 C40.13474609 13.78439453 40.13474609 13.78439453 40.13671875 15.63671875 C40.13285156 16.91160156 40.12898438 18.18648437 40.125 19.5 C40.13080078 21.41232422 40.13080078 21.41232422 40.13671875 23.36328125 C40.13542969 24.57371094 40.13414063 25.78414062 40.1328125 27.03125 C40.13168457 28.15080078 40.13055664 29.27035156 40.12939453 30.42382812 C40 33 40 33 39 34 C36.46950598 34.07313567 33.96695163 34.09247527 31.4375 34.0625 C30.72658203 34.05798828 30.01566406 34.05347656 29.28320312 34.04882812 C27.52209987 34.03700864 25.76103964 34.01907263 24 34 C24 34.66 24 35.32 24 36 C10.14 35.01 10.14 35.01 -4 34 C-4 33.67 -4 33.34 -4 33 C9.53 33 23.06 33 37 33 C37 24.09 37 15.18 37 6 C35.35 6 33.7 6 32 6 C32 4.68 32 3.36 32 2 C22.1 2 12.2 2 2 2 C1.67 3.32 1.34 4.64 1 6 C-0.65 5.67 -2.3 5.34 -4 5 C-3.01 4.67 -2.02 4.34 -1 4 C-0.67 2.68 -0.34 1.36 0 0 Z " fill="#A8C4D5" transform="translate(7,5)"/>
<path d="M0 0 C0.99 0 1.98 0 3 0 C3.02893932 3.62498334 3.04677792 7.24993713 3.0625 10.875 C3.07087891 11.90753906 3.07925781 12.94007812 3.08789062 14.00390625 C3.09111328 14.99003906 3.09433594 15.97617187 3.09765625 16.9921875 C3.10289307 17.90339355 3.10812988 18.81459961 3.11352539 19.75341797 C3 22 3 22 2 24 C-3.0143371 25.6714457 -8.25615075 25.18593357 -13.5065918 25.18530273 C-15.55863989 25.18749587 -17.61015588 25.2056849 -19.66210938 25.22460938 C-21.59473633 25.22750977 -21.59473633 25.22750977 -23.56640625 25.23046875 C-24.75177979 25.23457764 -25.93715332 25.23868652 -27.15844727 25.24291992 C-30 25 -30 25 -32 23 C-32.13525391 20.84521484 -32.13525391 20.84521484 -31.9765625 18.2109375 C-31.925 17.26992188 -31.8734375 16.32890625 -31.8203125 15.359375 C-31.75585938 14.37453125 -31.69140625 13.3896875 -31.625 12.375 C-31.56828125 11.38242187 -31.5115625 10.38984375 -31.453125 9.3671875 C-31.31140759 6.91075233 -31.15997723 4.45530265 -31 2 C-30.67 2 -30.34 2 -30 2 C-30 8.6 -30 15.2 -30 22 C-20.1 22 -10.2 22 0 22 C0 14.74 0 7.48 0 0 Z " fill="#C8DBE6" transform="translate(39,11)"/>
<path d="M0 0 C4.95 0 9.9 0 15 0 C15.33 0.99 15.66 1.98 16 3 C15.67 3.66 15.34 4.32 15 5 C21.435 4.505 21.435 4.505 28 4 C28.33 2.68 28.66 1.36 29 0 C33.62 0 38.24 0 43 0 C43 0.33 43 0.66 43 1 C37.06 1.495 37.06 1.495 31 2 C31 2.99 31 3.98 31 5 C33.475 5.495 33.475 5.495 36 6 C35.67 6.66 35.34 7.32 35 8 C26.09 8 17.18 8 8 8 C8.33 7.01 8.66 6.02 9 5 C9.99 4.67 10.98 4.34 12 4 C12.33 3.34 12.66 2.68 13 2 C8.71 1.67 4.42 1.34 0 1 C0 0.67 0 0.34 0 0 Z " fill="#BFD5E1" transform="translate(2,39)"/>
<path d="M0 0 C0.33 0 0.66 0 1 0 C1 6.6 1 13.2 1 20 C10.9 20 20.8 20 31 20 C31 20.33 31 20.66 31 21 C22.42 21 13.84 21 5 21 C4.67 21.66 4.34 22.32 4 23 C2.35 22.67 0.7 22.34 -1 22 C-0.67 14.74 -0.34 7.48 0 0 Z " fill="#D4E4EE" transform="translate(8,13)"/>
<path d="M0 0 C4.62 0 9.24 0 14 0 C14 0.33 14 0.66 14 1 C8.06 1.495 8.06 1.495 2 2 C2 2.99 2 3.98 2 5 C3.32 5.33 4.64 5.66 6 6 C-0.93 6 -7.86 6 -15 6 C-14.67 5.34 -14.34 4.68 -14 4 C-9.71 4 -5.42 4 -1 4 C-0.67 2.68 -0.34 1.36 0 0 Z " fill="#E0E9EF" transform="translate(31,39)"/>
<path d="M0 0 C0.66 0.66 1.32 1.32 2 2 C1.01 2.99 0.02 3.98 -1 5 C-0.01 6.32 0.98 7.64 2 9 C1.01 9.495 1.01 9.495 0 10 C-0.66 9.67 -1.32 9.34 -2 9 C-2 8.34 -2 7.68 -2 7 C-2.99 6.67 -3.98 6.34 -5 6 C-3.63016497 2.83884224 -3.0109362 2.0072908 0 0 Z " fill="#C2D6E1" transform="translate(19,18)"/>
<path d="M0 0 C2.46800047 1.15173355 4.04783565 2.04783565 6 4 C6 4.99 6 5.98 6 7 C3 9 3 9 0 9 C0 8.34 0 7.68 0 7 C0.66 7 1.32 7 2 7 C1.67 6.401875 1.34 5.80375 1 5.1875 C0 3 0 3 0 0 Z " fill="#BDD3DE" transform="translate(27,18)"/>
<path d="M0 0 C0.66 0 1.32 0 2 0 C1.34 3.3 0.68 6.6 0 10 C-0.66 10 -1.32 10 -2 10 C-1.85950482 8.52031676 -1.71245174 7.04125484 -1.5625 5.5625 C-1.48128906 4.73878906 -1.40007813 3.91507813 -1.31640625 3.06640625 C-1 1 -1 1 0 0 Z " fill="#BED2DE" transform="translate(24,18)"/>
<path d="M0 0 C2.97 0 5.94 0 9 0 C9 0.66 9 1.32 9 2 C6.03 2 3.06 2 0 2 C0 1.34 0 0.68 0 0 Z " fill="#E9EEF1" transform="translate(11,8)"/>
<path d="M0 0 C0.66 0 1.32 0 2 0 C2.103125 0.639375 2.20625 1.27875 2.3125 1.9375 C2.539375 2.618125 2.76625 3.29875 3 4 C3.99 4.33 4.98 4.66 6 5 C4.02 5.33 2.04 5.66 0 6 C0 4.02 0 2.04 0 0 Z " fill="#C9DAE4" transform="translate(39,5)"/>
</svg>
