<?xml version="1.0" standalone="no"?>
<!DOCTYPE svg PUBLIC "-//W3C//DTD SVG 20010904//EN"
 "http://www.w3.org/TR/2001/REC-SVG-20010904/DTD/svg10.dtd">
<svg version="1.0" xmlns="http://www.w3.org/2000/svg"
 width="128.000000pt" height="52.000000pt" viewBox="0 0 128.000000 52.000000"
 preserveAspectRatio="xMidYMid meet">

<g transform="translate(0.000000,52.000000) scale(0.100000,-0.100000)"
fill="#000000" stroke="none">
<path d="M557 443 c-4 -3 -7 -75 -7 -160 l0 -153 30 0 30 0 0 65 c0 56 2 65
18 65 29 0 49 -21 72 -77 20 -47 26 -53 51 -53 17 0 29 5 29 13 0 18 -46 114
-59 122 -8 4 -1 16 19 35 49 46 37 110 -25 136 -35 14 -146 20 -158 7z m131
-55 c7 -7 12 -21 12 -33 0 -30 -19 -45 -57 -45 -32 0 -33 1 -33 45 0 44 1 45
33 45 18 0 38 -5 45 -12z"/>
<path d="M849 428 c12 -16 11 -18 -3 -18 -9 0 -16 6 -16 13 0 6 -5 4 -11 -6
-13 -22 4 -48 30 -46 13 1 13 2 -1 6 -24 6 -23 23 2 23 25 0 26 13 3 31 -16
13 -17 12 -4 -3z"/>
<path d="M908 433 c-13 -3 -18 -13 -17 -36 2 -30 2 -31 6 -4 2 15 10 27 18 27
8 0 16 -12 18 -27 4 -27 4 -26 6 4 1 35 -5 42 -31 36z"/>
<path d="M970 425 c-18 -22 -8 -50 20 -52 l25 -3 -25 12 c-25 11 -25 11 -2 15
13 3 22 11 21 21 0 11 -3 12 -6 5 -2 -7 -12 -13 -20 -13 -13 0 -13 3 -3 15 7
8 10 15 7 15 -2 0 -10 -7 -17 -15z"/>
<path d="M1095 431 c-3 -7 0 -8 9 -5 9 3 16 2 16 -4 0 -5 -9 -12 -21 -15 -27
-7 -20 -31 10 -35 20 -3 22 0 19 29 -3 33 -21 49 -33 30z m25 -41 c0 -5 -4
-10 -10 -10 -5 0 -10 5 -10 10 0 6 5 10 10 10 6 0 10 -4 10 -10z"/>
<path d="M1161 426 c-10 -11 -8 -17 6 -25 16 -9 16 -12 3 -21 -13 -8 -13 -10
3 -10 19 0 23 25 6 35 -6 4 -8 13 -5 21 7 18 2 18 -13 0z"/>
<path d="M1030 416 c0 -7 8 -17 18 -21 16 -7 15 -8 -3 -15 -16 -7 -17 -9 -3
-9 27 -1 32 19 9 40 -16 15 -21 16 -21 5z"/>
</g>
</svg>
